<?xml version="1.0" encoding="utf-8"?>
<!-- Generator: Adobe Illustrator 16.0.0, SVG Export Plug-In . SVG Version: 6.00 Build 0)  -->
<!DOCTYPE svg PUBLIC "-//W3C//DTD SVG 1.1//EN" "http://www.w3.org/Graphics/SVG/1.1/DTD/svg11.dtd">
<svg version="1.1" id="Layer_1" xmlns="http://www.w3.org/2000/svg" xmlns:xlink="http://www.w3.org/1999/xlink" x="0px" y="0px"
	 width="254px" height="407px" viewBox="0 0 254 407" enable-background="new 0 0 254 407" xml:space="preserve">
<g display="none">
	<path display="inline" stroke="#5850EC" stroke-width="18" stroke-miterlimit="10" d="M196.796,4.345
		c4.9,0,8.873-3.974,8.873-8.873c0-4.898-3.973-8.873-8.873-8.873h-62.379v-79.857h62.379c4.9,0,8.873-3.973,8.873-8.873
		c0-4.899-3.973-8.873-8.873-8.873h-62.379v-61.193c0-4.901-3.973-8.873-8.873-8.873s-8.873,3.972-8.873,8.873v61.193H36.814
		v-61.197c0-4.899-3.973-8.873-8.873-8.873s-8.873,3.974-8.873,8.873v61.197h-62.526c-4.899,0-8.873,3.974-8.873,8.873
		c0,4.9,3.974,8.874,8.873,8.874h62.526v79.856h-62.526c-4.899,0-8.873,3.975-8.873,8.873c0,4.899,3.974,8.873,8.873,8.873h62.526
		v61.193c0,4.9,3.973,8.873,8.873,8.873s8.873-3.973,8.873-8.873V4.345h79.857v61.197c0,4.9,3.973,8.873,8.873,8.873
		s8.873-3.973,8.873-8.873V4.345H196.796z M36.814-13.401v-79.857h79.857v79.857H36.814L36.814-13.401z"/>
</g>
<path fill-rule="evenodd" clip-rule="evenodd" fill="#5A52EB" d="M57.692,154.392c0-3.458,0-6.52,0-9.985c3.731,0,6.953,0,10.58,0
	c0.154,3.298,0.297,6.366,0.461,9.895c3.381,0,6.602,0,10.29,0c0.165-3.164,0.318-6.231,0.499-9.804c3.287,0,6.503,0,10.234,0
	c0.188,3.007,0.374,6.072,0.599,9.705c3.172,0,6.383,0,10.521,0c0-9.387,0.23-18.972-0.082-28.54
	c-0.215-6.426,2.354-9.06,8.741-8.712c5.378,0.293,10.789,0.181,16.179,0.03c5.466-0.154,7.688,2.379,7.595,7.765
	c-0.165,9.645-0.044,19.295-0.044,29.48c3.479,0,6.689,0,10.685,0c0-10.322,0-20.752,0-31.489c3.814,0,6.876,0,10.712,0
	c0,10.436,0,20.862,0,31.651c3.809,0,6.865,0,10.702,0c0-10.298,0-20.728,0-31.561c3.973,0,7.183,0,10.942,0
	c0,10.506,0,20.758,0,31.47c3.731,0,6.937,0,10.888,0c0-4.769,0.061-9.428-0.017-14.082c-0.076-4.761,2.162-7.06,6.932-7.027
	c6.289,0.046,12.583,0.005,18.872,0.016c4.418,0.008,6.618,2.223,6.597,6.657c-0.022,4.681-0.006,9.365-0.006,14.472
	c3.693,0,6.898,0,10.652,0c0-5.082,0-9.944,0-15.27c3.736,0,6.947,0,10.717,0c0,4.942,0,9.801,0,14.51
	c10.971,2.941,10.971,2.941,10.971,14.378c-0.006,38.428-0.132,76.86,0.088,115.286c0.055,9.636-3.145,17.338-9.966,24.041
	c-16.184,15.912-32.225,31.973-48.15,48.143c-6.53,6.629-14.043,9.837-23.438,9.801c-45.84-0.17-91.685-0.058-137.529-0.088
	c-18.439-0.011-29.097-10.822-29.102-29.458c-0.018-56.404-0.006-112.811-0.006-169.217c0-10.77-0.006-10.77,10.63-12.378
	c0-4.782,0-9.65,0-15.003c3.71,0,6.926,0,10.69,0c0,4.906,0,9.765,0,15.157c3.726,0,6.931,0,10.932,0c0-12.136,0-24.363,0-36.895
	c3.819,0,6.881,0,10.712,0c0,12.244,0,24.467,0,37.051C50.58,154.392,53.631,154.392,57.692,154.392z M187.21,345.688
	c1.273-0.802,2.223-1.181,2.881-1.842c15.272-15.234,30.771-30.263,45.555-45.955c3.16-3.353,5.208-9.131,5.263-13.82
	c0.417-37.746,0.241-75.496,0.208-113.247c0-1.688-0.329-3.375-0.488-4.846c-75.572,0-150.535,0-226.054,0c0,2.374,0,4.347,0,6.319
	c0,54.376-0.011,108.755,0.011,163.133c0,12.99,5.928,18.928,18.934,18.937c45.164,0.024,90.329,0.014,135.494-0.006
	c2.365,0,4.73-0.225,7.414-0.362c0-13.165-0.17-25.516,0.043-37.854c0.23-12.819,8.951-23.76,21.469-25.771
	c6.915-1.111,14.153-0.201,21.326-0.201c0,3.438,0,6.495,0,10.273c-5.176,0-10.06-0.09-14.938,0.02
	c-10.36,0.233-16.896,6.582-17.083,16.817C187.078,326.489,187.21,335.7,187.21,345.688z M112.208,128.061
	c0,9.332,0,17.904,0,26.339c3.589,0,6.629,0,9.84,0c0-8.959,0-17.531,0-26.339C118.585,128.061,115.539,128.061,112.208,128.061z
	 M198.114,154.355c3.809,0,7.002,0,10.186,0c0-3.63,0-6.821,0-9.823c-3.699,0-6.893,0-10.186,0
	C198.114,147.954,198.114,150.833,198.114,154.355z"/>
<path fill-rule="evenodd" clip-rule="evenodd" fill="#5A52EB" stroke="#5850EC" stroke-width="16" stroke-miterlimit="10" d="
	M240.94,160.574c10.971,2.941,10.971,2.941,10.971,14.378c-0.006,38.428-0.132,76.86,0.088,115.286
	c0.055,9.636-3.145,17.338-9.966,24.041c-16.184,15.912-32.225,31.973-48.15,48.143c-6.53,6.629-14.043,9.837-23.438,9.801
	c-45.84-0.17-91.685-0.058-137.529-0.088c-18.439-0.011-29.097-10.822-29.102-29.458c-0.018-56.404-0.006-112.811-0.006-169.217
	c0-10.77-0.006-10.77,10.63-12.378L240.94,160.574z M190.091,350.847c15.272-15.234,30.771-30.263,45.555-45.955
	c3.16-3.353,5.208-9.131,5.263-13.82c0.417-37.746,0.241-75.496,0.208-113.247c0-1.688-0.329-3.375-0.488-4.846
	c-75.572,0-150.535,0-226.054,0c0,2.374,0,4.347,0,6.319c0,54.376-0.011,108.755,0.011,163.133c0,12.99,5.928,18.928,18.934,18.937
	c45.164,0.024,90.329,0.014,135.494-0.006c2.365,0,4.73-0.225,7.414-0.362C179.751,360.75,189.433,351.508,190.091,350.847z"/>
<path fill-rule="evenodd" clip-rule="evenodd" fill="#5A52EB" d="M57.72,108.4c0-5.603,0.049-11.208-0.017-16.814
	c-0.055-4.774,2.25-6.988,6.976-6.95c6.277,0.05,12.556,0.006,18.834,0.017c4.4,0.008,6.602,2.209,6.591,6.632
	c-0.011,11.884,0.011,23.765-0.022,35.649c-0.011,4.102-2.211,6.209-6.267,6.245c-6.503,0.058-13.007,0.027-19.51,0.016
	c-4.401-0.005-6.602-2.208-6.591-6.632C57.73,120.507,57.72,114.454,57.72,108.4z M68.767,121.857c3.885,0,7.085,0,10.191,0
	c0-8.964,0-17.372,0-25.988c-3.551,0-6.75,0-10.191,0C68.767,104.705,68.767,113.109,68.767,121.857z"/>
<path fill-rule="evenodd" clip-rule="evenodd" fill="#5A52EB" d="M176.415,87.476c0,5.828-0.011,11.659,0.006,17.487
	c0.011,4.412-2.162,6.646-6.574,6.654c-6.278,0.014-12.557-0.033-18.834,0.019c-4.715,0.039-7.02-2.151-6.997-6.934
	c0.055-11.659,0.027-23.318,0.017-34.974c-0.006-4.418,2.162-6.644,6.574-6.654c6.277-0.014,12.551,0.036,18.828-0.02
	c4.72-0.038,7.053,2.148,6.997,6.934C176.366,75.817,176.421,81.645,176.415,87.476z M155.084,100.279c3.886,0,7.079,0,10.191,0
	c0-8.964,0-17.372,0-25.99c-3.557,0-6.75,0-10.191,0C155.084,83.124,155.084,91.531,155.084,100.279z"/>
<path fill-rule="evenodd" clip-rule="evenodd" fill="#5A52EB" d="M46.486,105.909c-3.546,0-6.603,0-9.999,0
	c0-21.307,0-42.294,0-63.837c3.106,0,6.311,0,9.999,0C46.486,63.055,46.486,84.208,46.486,105.909z"/>
<path fill-rule="evenodd" clip-rule="evenodd" fill="#5A52EB" d="M209.161,41.872c3.276,0,6.333,0,9.905,0
	c0,17.484,0,35.042,0,53.089c-3.089,0-6.294,0-9.905,0C209.161,77.343,209.161,59.784,209.161,41.872z"/>
<path fill-rule="evenodd" clip-rule="evenodd" fill="#5A52EB" d="M14.876,127.328c0-17.961,0-35.358,0-53.114
	c3.364,0,6.421,0,9.982,0c0,17.493,0,35.059,0,53.114C21.774,127.328,18.575,127.328,14.876,127.328z"/>
<path fill-rule="evenodd" clip-rule="evenodd" fill="#5A52EB" d="M240.683,127.501c-3.512,0-6.563,0-9.977,0
	c0-17.876,0-35.44,0-53.325c3.392,0,6.448,0,9.977,0C240.683,91.784,240.683,109.35,240.683,127.501z"/>
<path fill-rule="evenodd" clip-rule="evenodd" fill="#5A52EB" d="M197.532,122.099c-3.534,0-6.585,0-9.987,0
	c0-15.915,0-31.517,0-47.684c3.095,0,6.3,0,9.987,0C197.532,90.003,197.532,105.77,197.532,122.099z"/>
<path fill-rule="evenodd" clip-rule="evenodd" fill="#5A52EB" d="M132.814,78.917c-3.6,0-6.656,0-10.031,0
	c0-12.339,0-24.341,0-36.873c3.166,0,6.371,0,10.031,0C132.814,54.104,132.814,66.271,132.814,78.917z"/>
<path fill-rule="evenodd" clip-rule="evenodd" fill="#5A52EB" d="M68.174,73.564c-3.425,0-6.476,0-9.993,0
	c0-10.455,0-20.826,0-31.626c3.238,0,6.438,0,9.993,0C68.174,52.349,68.174,62.553,68.174,73.564z"/>
<path fill-rule="evenodd" clip-rule="evenodd" fill="#5A53EB" d="M111.347,79.655c0,8.674,0,17.089,0,26.045
	c-3.156,0-6.35,0-10.026,0c0-8.467,0-17.048,0-26.045C104.607,79.655,107.807,79.655,111.347,79.655z"/>
<path fill-rule="evenodd" clip-rule="evenodd" fill="#5A53EB" d="M111.335,68.172c-3.435,0-6.486,0-9.998,0
	c0-8.66,0-17.234,0-26.237c3.243,0,6.442,0,9.998,0C111.335,50.551,111.335,58.961,111.335,68.172z"/>
<path fill-rule="evenodd" clip-rule="evenodd" fill="#5B53EB" d="M25.04,62.803c-3.502,0-6.547,0-10.037,0
	c0-6.937,0-13.717,0-20.893c3.309,0,6.508,0,10.037,0C25.04,48.801,25.04,55.413,25.04,62.803z"/>
<path fill-rule="evenodd" clip-rule="evenodd" fill="#5B53EB" d="M230.827,41.817c3.512,0,6.558,0,9.966,0
	c0,6.898,0,13.514,0,20.697c-3.073,0-6.272,0-9.966,0C230.827,55.954,230.827,49.174,230.827,41.817z"/>
<path fill-rule="evenodd" clip-rule="evenodd" fill="#5B53EB" d="M187.512,41.779c3.518,0,6.569,0,10.048,0
	c0,6.953,0,13.73,0,20.906c-3.325,0-6.52,0-10.048,0C187.512,55.77,187.512,49.157,187.512,41.779z"/>
<path fill-rule="evenodd" clip-rule="evenodd" fill="#5B53EB" d="M122.821,90.349c3.381,0,6.427,0,9.961,0
	c0,5.024,0,10.013,0,15.448c-3.188,0-6.389,0-9.961,0C122.821,100.644,122.821,95.652,122.821,90.349z"/>
<path fill-rule="evenodd" clip-rule="evenodd" fill="#5B53EB" d="M209.232,106.54c3.567,0,6.612,0,9.999,0c0,5.14,0,9.969,0,15.342
	c-3.128,0-6.328,0-9.999,0C209.232,117.041,209.232,112.053,209.232,106.54z"/>
<path fill-rule="evenodd" clip-rule="evenodd" fill="#5B53EC" d="M175.883,52.044c-3.348,0-6.388,0-9.851,0c0-3.43,0-6.618,0-10.175
	c3.211,0,6.251,0,9.851,0C175.883,44.937,175.883,48.125,175.883,52.044z"/>
<path fill-rule="evenodd" clip-rule="evenodd" fill="#5B53EC" d="M154.706,42.062c0,3.424,0,6.303,0,9.705c-3.32,0-6.515,0-10.208,0
	c0-3.051,0-6.245,0-9.705C147.911,42.062,151.271,42.062,154.706,42.062z"/>
<path fill-rule="evenodd" clip-rule="evenodd" fill="#5B53EC" d="M89.681,73.734c-3.529,0-6.415,0-9.84,0c0-3.295,0-6.492,0-10.191
	c2.996,0,6.195,0,9.84,0C89.681,66.732,89.681,69.926,89.681,73.734z"/>
<path fill-rule="evenodd" clip-rule="evenodd" fill="#5B53EC" d="M79.577,51.794c0-3.457,0-6.492,0-9.902c3.479,0,6.679,0,10.208,0
	c0,3.328,0,6.363,0,9.902C86.591,51.794,83.397,51.794,79.577,51.794z"/>
<path display="none" fill-rule="evenodd" clip-rule="evenodd" fill="#FDFDFE" d="M187.21,345.688c0-9.988-0.132-19.199,0.033-28.405
	c0.187-10.235,6.723-16.584,17.083-16.817c4.879-0.109,9.763-0.02,14.938-0.02c0-3.778,0-6.835,0-10.273
	c-7.173,0-14.411-0.91-21.326,0.201c-12.518,2.011-21.238,12.951-21.469,25.771c-0.213,12.339-0.043,24.689-0.043,37.854
	c-2.684,0.138-5.049,0.362-7.414,0.362c-45.165,0.02-90.33,0.03-135.494,0.006c-13.006-0.009-18.934-5.946-18.934-18.937
	c-0.021-54.378-0.011-108.757-0.011-163.133c0-1.973,0-3.945,0-6.319c75.519,0,150.481,0,226.054,0
	c0.159,1.471,0.488,3.158,0.488,4.846c0.033,37.751,0.209,75.501-0.208,113.247c-0.055,4.689-2.103,10.468-5.263,13.82
	c-14.784,15.692-30.282,30.721-45.555,45.955C189.433,344.508,188.483,344.887,187.21,345.688z M170.702,225.37
	c-28.926,0-57.281,0-85.691,0c0,3.523,0,6.578,0,9.98c28.674,0,57.023,0,85.691,0C170.702,231.945,170.702,228.892,170.702,225.37z
	 M95.788,202.859c25.365,0,50.126,0,74.903,0c0-3.534,0-6.585,0-9.958c-25.085,0-49.84,0-74.903,0
	C95.788,196.318,95.788,199.372,95.788,202.859z M138.341,257.743c-25.337,0-50.098,0-74.908,0c0,3.523,0,6.574,0,9.975
	c25.079,0,49.834,0,74.908,0C138.341,264.314,138.341,261.261,138.341,257.743z M213.728,267.709c0-3.572,0-6.772,0-9.963
	c-21.611,0-42.778,0-63.972,0c0,3.534,0,6.585,0,9.963C171.24,267.709,192.401,267.709,213.728,267.709z M132.952,332.559
	c0-3.727,0-6.774,0-10.186c-21.469,0-42.635,0-64.01,0c0,3.542,0,6.741,0,10.186C90.372,332.559,111.368,332.559,132.952,332.559z
	 M41.86,299.979c19.915,0,39.281,0,58.719,0c0-3.52,0-6.571,0-9.977c-19.668,0-39.034,0-58.719,0
	C41.86,293.39,41.86,296.44,41.86,299.979z M165.308,290.104c-18.12,0-35.687,0-53.33,0c0,3.518,0,6.569,0,9.975
	c17.874,0,35.44,0,53.33,0C165.308,296.692,165.308,293.642,165.308,290.104z M73.656,225.42c-11.102,0-21.485,0-31.758,0
	c0,3.567,0,6.615,0,9.881c10.745,0,21.122,0,31.758,0C73.656,231.852,73.656,228.804,73.656,225.42z M214.045,192.962
	c-11.024,0-21.402,0-31.735,0c0,3.639,0,6.836,0,9.829c10.893,0,21.265,0,31.735,0C214.045,199.351,214.045,196.458,214.045,192.962
	z M213.897,225.397c-11.036,0-21.414,0-31.764,0c0,3.551,0,6.6,0,9.926c10.718,0,21.101,0,31.764,0
	C213.897,231.896,213.897,228.847,213.897,225.397z M144.443,322.346c0,3.54,0,6.73,0,10.015c7.2,0,13.988,0,20.65,0
	c0-3.66,0-6.854,0-10.015C157.933,322.346,151.314,322.346,144.443,322.346z M84.396,192.905c-5.307,0-10.295,0-15.453,0
	c0,3.572,0,6.764,0,9.951c5.443,0,10.432,0,15.453,0C84.396,199.328,84.396,196.288,84.396,192.905z M41.871,332.416
	c5.339,0,10.333,0,15.398,0c0-3.603,0-6.792,0-9.9c-5.466,0-10.46,0-15.398,0C41.871,326.071,41.871,329.112,41.871,332.416z
	 M52.062,257.771c-3.813,0-7.014,0-10.207,0c0,3.545,0,6.583,0,9.919c3.528,0,6.729,0,10.207,0
	C52.062,264.273,52.062,261.233,52.062,257.771z"/>
<path display="none" fill-rule="evenodd" clip-rule="evenodd" fill="#FBFBFE" d="M112.208,128.061c3.331,0,6.377,0,9.84,0
	c0,8.808,0,17.38,0,26.339c-3.211,0-6.251,0-9.84,0C112.208,145.965,112.208,137.393,112.208,128.061z"/>
<path display="none" fill-rule="evenodd" clip-rule="evenodd" fill="#FAFAFE" d="M198.114,154.355c0-3.523,0-6.401,0-9.823
	c3.293,0,6.486,0,10.186,0c0,3.002,0,6.193,0,9.823C205.116,154.355,201.923,154.355,198.114,154.355z"/>
<path display="none" fill-rule="evenodd" clip-rule="evenodd" fill="#FBFBFE" d="M68.767,121.857c0-8.748,0-17.152,0-25.988
	c3.441,0,6.641,0,10.191,0c0,8.616,0,17.023,0,25.988C75.852,121.857,72.651,121.857,68.767,121.857z"/>
<path display="none" fill-rule="evenodd" clip-rule="evenodd" fill="#FBFBFE" d="M155.084,100.279c0-8.748,0-17.155,0-25.99
	c3.441,0,6.635,0,10.191,0c0,8.619,0,17.026,0,25.99C162.163,100.279,158.97,100.279,155.084,100.279z"/>
<path fill-rule="evenodd" clip-rule="evenodd" fill="#5A52EB" d="M170.702,225.37c0,3.521,0,6.575,0,9.98
	c-28.668,0-57.018,0-85.691,0c0-3.402,0-6.457,0-9.98C113.421,225.37,141.776,225.37,170.702,225.37z"/>
<path fill-rule="evenodd" clip-rule="evenodd" fill="#5A52EB" d="M95.788,202.859c0-3.487,0-6.541,0-9.958
	c25.063,0,49.818,0,74.903,0c0,3.373,0,6.424,0,9.958C145.914,202.859,121.153,202.859,95.788,202.859z"/>
<path fill-rule="evenodd" clip-rule="evenodd" fill="#5A52EB" d="M138.341,257.743c0,3.518,0,6.571,0,9.975
	c-25.074,0-49.829,0-74.908,0c0-3.4,0-6.451,0-9.975C88.243,257.743,113.004,257.743,138.341,257.743z"/>
<path fill-rule="evenodd" clip-rule="evenodd" fill="#5A52EB" d="M213.728,267.709c-21.326,0-42.487,0-63.972,0
	c0-3.378,0-6.429,0-9.963c21.193,0,42.36,0,63.972,0C213.728,260.937,213.728,264.137,213.728,267.709z"/>
<path fill-rule="evenodd" clip-rule="evenodd" fill="#5A52EB" d="M132.952,332.559c-21.584,0-42.58,0-64.01,0
	c0-3.444,0-6.644,0-10.186c21.375,0,42.541,0,64.01,0C132.952,325.784,132.952,328.832,132.952,332.559z"/>
<path fill-rule="evenodd" clip-rule="evenodd" fill="#5A52EB" d="M41.86,299.979c0-3.539,0-6.59,0-9.977c19.685,0,39.051,0,58.719,0
	c0,3.405,0,6.457,0,9.977C81.142,299.979,61.775,299.979,41.86,299.979z"/>
<path fill-rule="evenodd" clip-rule="evenodd" fill="#5A52EB" d="M165.308,290.104c0,3.537,0,6.588,0,9.975
	c-17.89,0-35.456,0-53.33,0c0-3.405,0-6.457,0-9.975C129.621,290.104,147.188,290.104,165.308,290.104z"/>
<path fill-rule="evenodd" clip-rule="evenodd" fill="#5A52EB" d="M73.656,225.42c0,3.384,0,6.432,0,9.881
	c-10.636,0-21.013,0-31.758,0c0-3.266,0-6.313,0-9.881C52.171,225.42,62.555,225.42,73.656,225.42z"/>
<path fill-rule="evenodd" clip-rule="evenodd" fill="#5A52EB" d="M214.045,192.962c0,3.496,0,6.389,0,9.829
	c-10.471,0-20.843,0-31.735,0c0-2.993,0-6.19,0-9.829C192.643,192.962,203.021,192.962,214.045,192.962z"/>
<path fill-rule="evenodd" clip-rule="evenodd" fill="#5A52EB" d="M213.897,225.397c0,3.449,0,6.498,0,9.926
	c-10.663,0-21.046,0-31.764,0c0-3.326,0-6.375,0-9.926C192.483,225.397,202.861,225.397,213.897,225.397z"/>
<path fill-rule="evenodd" clip-rule="evenodd" fill="#5B53EB" d="M144.443,322.346c6.871,0,13.489,0,20.65,0
	c0,3.161,0,6.354,0,10.015c-6.662,0-13.45,0-20.65,0C144.443,329.076,144.443,325.886,144.443,322.346z"/>
<path fill-rule="evenodd" clip-rule="evenodd" fill="#5B53EB" d="M84.396,192.905c0,3.383,0,6.423,0,9.951
	c-5.021,0-10.01,0-15.453,0c0-3.188,0-6.379,0-9.951C74.101,192.905,79.089,192.905,84.396,192.905z"/>
<path fill-rule="evenodd" clip-rule="evenodd" fill="#5B53EB" d="M41.871,332.416c0-3.304,0-6.345,0-9.9c4.938,0,9.933,0,15.398,0
	c0,3.108,0,6.298,0,9.9C52.204,332.416,47.21,332.416,41.871,332.416z"/>
<path fill-rule="evenodd" clip-rule="evenodd" fill="#5B53EC" d="M52.062,257.771c0,3.463,0,6.503,0,9.919
	c-3.479,0-6.679,0-10.207,0c0-3.336,0-6.374,0-9.919C45.048,257.771,48.248,257.771,52.062,257.771z"/>
</svg>
