<?xml version="1.0" encoding="utf-8"?>
<!-- Generator: Adobe Illustrator 16.0.0, SVG Export Plug-In . SVG Version: 6.00 Build 0)  -->
<!DOCTYPE svg PUBLIC "-//W3C//DTD SVG 1.1//EN" "http://www.w3.org/Graphics/SVG/1.1/DTD/svg11.dtd">
<svg version="1.1" id="Layer_1" xmlns="http://www.w3.org/2000/svg" xmlns:xlink="http://www.w3.org/1999/xlink" x="0px" y="0px"
	 width="254px" height="407px" viewBox="0 0 254 407" enable-background="new 0 0 254 407" xml:space="preserve">
<g>
	<path stroke="rgb(88, 80, 236)" stroke-width="18" stroke-miterlimit="10" d="M247.127,260.807c4.9,0,8.873-3.974,8.873-8.873
		s-3.973-8.873-8.873-8.873h-62.379v-79.858h62.379c4.9,0,8.873-3.973,8.873-8.873c0-4.899-3.973-8.873-8.873-8.873h-62.379V84.264
		c0-4.901-3.973-8.873-8.873-8.873s-8.873,3.972-8.873,8.873v61.193H87.145V84.26c0-4.899-3.973-8.873-8.873-8.873
		c-4.9,0-8.873,3.974-8.873,8.873v61.197H6.873c-4.899,0-8.873,3.974-8.873,8.873c0,4.9,3.974,8.874,8.873,8.874h62.526v79.857
		H6.873c-4.899,0-8.873,3.974-8.873,8.873s3.974,8.873,8.873,8.873h62.526V322c0,4.9,3.973,8.873,8.873,8.873
		c4.9,0,8.873-3.973,8.873-8.873v-61.193h79.857v61.197c0,4.9,3.973,8.873,8.873,8.873s8.873-3.973,8.873-8.873v-61.197H247.127z
		 M87.145,243.061v-79.858h79.857v79.858H87.145L87.145,243.061z"/>
</g>
</svg>
